<svg width="375.847" height="449.722" viewBox="0 0 99.443 118.989" xmlns="http://www.w3.org/2000/svg"><path d="M10.35 118.792c-4.072-.689-7.519-3.22-9.276-6.815l-.99-2.025-.07-49.477c-.047-33.334.02-49.909.204-50.8.845-4.08 3.86-7.354 8.201-8.91l1.72-.615L36.04.075 61.943 0l2.276 2.184c4.394 4.215 8.15 7.8 13.256 12.65 2.835 2.692 6.523 6.205 8.198 7.805 1.674 1.601 4.295 4.105 5.824 5.564a1619.98 1619.98 0 015.363 5.148l2.583 2.494-.07 37.053-.07 37.054-.818 1.72c-1.501 3.154-4.06 5.422-7.516 6.66l-1.72.616-38.761.038c-21.319.02-39.38-.067-40.138-.195zm80.09-13.603v-4.365H8.948v8.731H90.44zm0-16.933V83.89H8.948v8.732H90.44zm0-16.933v-4.366H8.948v8.731H90.44zm0-16.934v-4.365H8.948v8.731H90.44zM45.724 39.771c-.002-2.735-.356-3.86-1.658-5.272-1.356-1.472-4.97-3.28-8.13-4.068-3.265-.814-8.43-.985-11.517-.38-5.177 1.014-9.26 3.049-10.712 5.337-.739 1.164-.79 1.415-.79 3.84v2.594h32.808l-.002-2.05zm43.128.395c-.946-.907-3.089-2.955-4.762-4.552l-5.963-5.69a6777.44 6777.44 0 00-5.7-5.433c-4.44-4.226-8.356-7.96-11.502-10.964a1183.74 1183.74 0 00-4.035-3.84l-1.11-1.046v33.18l17.396-.002 17.396-.003-1.72-1.65zM32.86 24.784c2.891-1.414 4.497-4.015 4.51-7.304.011-2.627-.726-4.305-2.674-6.085-5.04-4.607-13.082-1.367-13.52 5.447-.253 3.942 1.954 7.286 5.594 8.477 1.673.548 4.36.312 6.09-.535z" fill="#f5f5f5"/></svg>