<svg xmlns="http://www.w3.org/2000/svg" width="881.408" height="1010.215" viewBox="0 0 233.206 267.286"><path d="M.15 266.545c.105-.51 48.483-130.756 54.538-146.829.186-.492 5.472 3.58 30.658 23.617 21.986 17.491 30.662 24.212 31.257 24.212.594 0 9.27-6.72 31.257-24.212 25.186-20.037 30.472-24.11 30.658-23.617 6.055 16.073 54.433 146.32 54.537 146.83l.15.74h-37.208l-.327-.905c-1.869-5.169-33.709-90.781-33.794-90.866-.062-.063-10.16 8.117-22.44 18.178-12.28 10.061-22.554 18.292-22.833 18.292-.279 0-10.554-8.231-22.833-18.292-12.28-10.06-22.378-18.24-22.44-18.178-.085.085-31.925 85.697-33.794 90.866l-.327.905H0zM131.225 92.666c-7.951-21.452-14.53-39.005-14.621-39.004-.09 0-6.626 17.434-14.524 38.742-7.898 21.308-14.49 38.786-14.65 38.84-.213.07-26.606-21.379-28.185-22.907-.137-.132 8.655-24.154 19.538-53.383A90674.602 90674.602 0 0098.894.905L99.221 0h34.764l.326.905c.18.498 9.231 24.821 20.114 54.052 15.696 42.158 19.702 53.227 19.374 53.532-.228.212-6.413 5.312-13.746 11.333a5006.202 5006.202 0 00-13.852 11.398c-.467.404-2.03-3.618-14.977-38.554z" fill="#f5f5f5"/></svg>